# xmcd
#
# Track frame offsets:
#	150
#	19660
#	45923
#	63656
#	84011
#	101429
#	119375
#	137819
#	153243
#	172021
#	194556
#	212224
#	227043
#	243659
#	262364
#	283329
#	303927
#
# Disc length: 4324
#
# Revision: 1
# Processed by: cddbd v1.5.1PL0 Copyright (c) Steve Scherf et al.
# Submitted via: ExactAudioCopy v0.95a5
# Normalized: r0:TDELIM( - )
#
DISCID=f510e211
DTITLE=Various Artist - De Pre Historie 1984 Vol 2
DYEAR=1900
DGENRE=Oldies
TTITLE0=Queen - I Want To Break Free
TTITLE1=Prince - Purple Rain
TTITLE2=Frankie Goes To Hollywood - Relax
TTITLE3=James Ingram And Michael Mc Donald - Yah Mo B There
TTITLE4=Cyndi Lauper - Girls Just Want To Have Fun
TTITLE5=Laura Branigan - Self Control
TTITLE6=Ray Parker Jr. - Ghostbusters
TTITLE7=Phil Collings - Against All Odds
TTITLE8=Tim Finn - Fraction Too Much Friction
TTITLE9=Bronski Beat - Small Town Boy
TTITLE10=Alphaville - Big In Japan
TTITLE11=Nik Kershaws - I Won't Let The Sun Go Down On Me
TTITLE12=Paul Young - Love Of The Common People
TTITLE13=Jim Diamond - I Should Have Known Better
TTITLE14=Sister Sledge - Lost In Music
TTITLE15=Chic - You Are Beautiful
TTITLE16=Mike Oldfield And Maggie Reilly - To France
EXTD=
EXTT0=
EXTT1=
EXTT2=
EXTT3=
EXTT4=
EXTT5=
EXTT6=
EXTT7=
EXTT8=
EXTT9=
EXTT10=
EXTT11=
EXTT12=
EXTT13=
EXTT14=
EXTT15=
EXTT16=
PLAYORDER=
